<svg xmlns="http://www.w3.org/2000/svg" xml:space="preserve" width="2000" height="359" data-id="lg_eBknbUPb5mRfkUmwvz" data-version="1" viewBox="0 0 2000 359"><g data-padding="20"><g transform="translate(10 6.434)scale(.96416)"><rect width="558.03" height="201.14" x="467.788" y="-100.837" fill="none" rx="0" ry="0" transform="translate(280 258.84)"/><path fill="#ff851b" d="M1043.24 135.703c-18.775 3.132-38.698-2.454-53.453-14.39-14.024-11.345-22.794-29.145-22.15-47.276.609-17.574 9.57-35.113 24.499-44.718a48.02 48.02 0 0 1 51.33.209c14.181 9.36 22.028 27.596 17.226 44.196-2.47 8.56-7.952 16.478-15.747 21.002a32.19 32.19 0 0 1-27.161 2.33c-7.917-3.01-14.651-9.464-17.157-17.66a24.88 24.88 0 0 1 5.794-24.412c6.003-6.072 15.66-8.247 23.456-4.454 7.412 3.584 11.988 12.423 9.239 20.445a14.44 14.44 0 0 1-9.43 9.257 12.18 12.18 0 0 1-12.946-4.35c-2.837-3.863-2.61-9.57 1.044-12.842a7.48 7.48 0 0 1 6.925-1.774c.713.208 3.88.99 3.584 2.105.157-1.131-2.331-1.427-3.062-1.618a6.96 6.96 0 0 0-6.473 1.566 8.526 8.526 0 0 0-1.044 11.03 10.09 10.09 0 0 0 11.066 3.429c3.968-1.322 6.734-5.237 7.378-9.291 1.305-8.178-6.63-15.243-14.477-14.912-8.317.348-14.877 7.604-15.851 15.608-1.845 14.998 15.312 25.212 28.64 21.82 14.877-3.794 22.377-21.542 18.74-35.636-4.089-15.712-20.706-25.491-36.331-25.282-17.017.226-31.807 12.58-38.193 27.84-7.03 16.808-3.828 36.853 7.308 51.104 11.275 14.459 29.458 22.828 47.589 23.785 10.04.522 20.445-.94 29.58-5.237 8.63-4.054 15.503-10.892 20.845-18.67a70.64 70.64 0 0 0 10.684-55.384c-7.552-32.504-40.264-56.272-73.515-53.436-32.678 2.784-60.535 30.729-63.319 63.388a70.12 70.12 0 0 0 17.278 51.87 70.12 70.12 0 0 0 48.842 23.246c10.649.47 21.402-1.531 31.146-5.846-4.298 1.46-8.683 2.958-13.259 3.2.87-.051 1.705-.434 2.61-.434-3.132-.017-6.038 1.358-9.135 1.514 1.81-.087 3.654-.47 5.394-.974.574-.174 2.523-1.01 3.045-.435-.348-.4-2.366.33-2.801.435-1.618.383-3.393.783-5.046.87.73-.035 7.882-1.218 7.882-1.305 0 .122-7.012 1.06-8.039 1.34 1.253-.348 2.61-.418 3.898-.627.504-.087 3.758-1.044 4.124-.696-.053-.07-.488.052-.557.07-18.618 3.114 4.35-.68 0 0"/><rect width="458.272" height="158.2" x="517.667" y="-79.367" fill="none" rx="0" ry="0" transform="translate(280.48 242.73)"/><path d="M836.343 289.243q-8.84 0-13.68-1.12-4.83-1.12-6.66-3.16-1.82-2.03-1.96-4.55 0-3.93 4.7-6.6 4.7-2.66 17.32-3.36l-2.25 2.66q-1.54-7.15-2.24-16.69-.7-9.53-.56-19.77t.98-19.56q.84-9.33 2.39-15.92l12.2-.84q-3.09 1.26-7.72 2.17-4.62.91-9.53.91-8.98 0-13.26-1.96-4.27-1.96-4.27-5.47 0-6.17 7.5-9.61 7.5-3.43 23.07-3.43 18.51 0 31.2 6.1 12.7 6.1 19.29 16.97t6.59 25.31q0 12.62-4.49 23.21t-12.83 18.37q-8.35 7.79-19.92 12.06-11.57 4.28-25.87 4.28m19.91-21.6q4.77 0 10.17-3.85 5.4-3.86 9.19-11.36 3.78-7.51 3.78-18.58 0-8.14-2.31-14.24t-5.96-10.17q-3.65-4.06-7.71-6.1-4.07-2.03-7.72-2.03-2.94 0-4.56 3.65-1.61 3.64-2.31 10.86-.7 7.23-.7 17.88 0 16.55 1.68 25.25 1.68 8.69 6.45 8.69m97.9 19.49q-15.56 0-24.82-4.63t-13.32-13.32q-4.07-8.7-4.07-20.76 0-15.29 5.68-26.01 5.68-10.73 15.71-16.48 10.02-5.75 22.79-5.75 15 0 22.01 6.94 7.02 6.94 7.02 18.16 0 8.98-4.7 15.5t-12.97 10.02q-8.28 3.51-19.08 3.51-6.03 0-11.64-1.54t-10.09-4.21l3.36-6.17q-.42 3.37-.42 6.73 0 9.82 6.17 14.1 6.17 4.27 17.53 4.27 8.84 0 14.17-1.54t8.97-3.01q3.65-1.48 7.15-1.48 1.97 0 3.58 1.05 1.61 1.06 2.66 3.02 1.06 1.96 1.06 4.77 0 4.21-4.21 8.06-4.21 3.86-12.41 6.31-8.21 2.46-20.13 2.46m-8.13-45.86q9.96 0 15.99-4.21t6.03-10.38q0-4.91-3.3-8.06-3.29-3.16-10.31-3.16-6.59 0-11.85 2.46-5.26 2.45-8.2 6.38-2.95 3.93-2.95 8.55 0 4.07 3.86 6.24 3.86 2.18 10.73 2.18m71.52-42.49q4.49 0 6.1 3.65 1.62 3.65 1.62 10.8 0 1.68-.21 3.58-.21 1.89-.64 3.43l-.28-2.8q3.37-9.12 10.38-14.24t14.87-5.12q8.69 0 14.51 4.91t8.7 13.75q2.87 8.83 2.87 20.89 0 7.43-.63 14.66-.63 7.22-1.68 13.18t-2.32 9.75q-1.68 4.77-4.34 7.08-2.67 2.31-6.31 2.31-3.65 0-5.61-2.66-1.97-2.67-1.97-7.15 0-4.77.7-11.57.71-6.81 1.34-13.89t.63-12.83q0-19.63-12.9-19.63-6.88 0-11.5 6.1-4.63 6.1-6.18 17.32-.42 3.78-.42 9.39t.07 11.15-.35 9.33q-.56 8.41-3.15 12.06-2.6 3.65-7.08 3.65-5.19 0-7.86-4.84-2.66-4.84-2.66-16.34 0-5.89.28-13.18.28-7.3.77-14.66t1.19-13.39q1.4-11.36 4.07-18.02 2.66-6.67 7.99-6.67m88.92 115.14q-7.58 0-7.58-8.13 0-4.49 3.09-10.66 3.08-6.17 9.04-13.32t14.52-14.59l-.14 1.12q-18.65-18.51-28.26-32.53-9.61-14.03-9.61-24.26 0-5.05 2.6-7.86 2.59-2.8 6.94-2.8 9.26 0 18.37 13.46 9.12 13.46 17.25 40.95h.56q5.33-28.89 11.36-42.42t14.31-13.53q3.92 0 5.82 2.73 1.89 2.73 1.89 7.64 0 4.07-1.75 10.73-1.76 6.66-4.91 15.01-3.16 8.34-7.29 17.32-4.14 8.97-9.05 17.67-12.48 22.58-21.32 33.03-8.83 10.44-15.84 10.44m107.7-115.7q12.48 0 17.95 3.65t5.47 9.4q0 3.36-2.31 5.54-2.31 2.17-6.52 2.17-4.35 0-9.05-1.26-4.7-1.27-10.87-1.27-7.15 0-10.65 2.81-3.51 2.8-3.51 7.15 0 4.07 3.15 6.38 3.16 2.32 12.14 3.44 9.95 1.12 16.47 3.58 6.53 2.45 9.75 7.29 3.23 4.84 3.23 13.25 0 13.32-9.4 19.78-9.4 6.45-25.94 6.45-10.52 0-16.69-1.69-6.17-1.68-8.91-4.76-2.73-3.09-2.73-7.3 0-3.64 2.45-5.68 2.46-2.03 5.82-2.03 3.23 0 6.87.77 3.65.77 7.72 1.61 4.06.84 8.41.84 14.03 0 14.03-8.69 0-2.95-1.41-4.77-1.4-1.82-5.05-3.01-3.64-1.2-10.65-1.9-8.42-.84-14.59-2.87-6.17-2.04-9.54-6.73-3.36-4.7-3.36-12.98 0-13.04 9.81-21.1 9.82-8.07 27.91-8.07"/></g><path fill="transparent" stroke="transparent" d="M721 0h558v359H721z"/></g></svg>